<mxfile host="app.diagrams.net" modified="2024-04-18T04:37:38.276Z" agent="Mozilla/5.0 (Windows NT 10.0; Win64; x64) AppleWebKit/537.36 (KHTML, like Gecko) Chrome/123.0.0.0 Safari/537.36 Edg/123.0.0.0" etag="kMMk0vO4uqZ86sNCX6YV" version="23.0.2" type="device">
  <diagram name="Page-1" id="IghGxft5-2v1adS3Pcfe">
    <mxGraphModel dx="1828" dy="507" grid="1" gridSize="10" guides="1" tooltips="1" connect="1" arrows="1" fold="1" page="1" pageScale="1" pageWidth="850" pageHeight="1100" math="0" shadow="0">
      <root>
        <mxCell id="0" />
        <mxCell id="1" parent="0" />
        <mxCell id="Zqi8lVFyl1Y3GN6MV2mj-40" value="" style="rounded=0;whiteSpace=wrap;html=1;" vertex="1" parent="1">
          <mxGeometry x="-170" y="40" width="850" height="280" as="geometry" />
        </mxCell>
        <mxCell id="Zqi8lVFyl1Y3GN6MV2mj-38" value="" style="rounded=0;whiteSpace=wrap;html=1;" vertex="1" parent="1">
          <mxGeometry x="-170" y="350" width="850" height="310" as="geometry" />
        </mxCell>
        <mxCell id="Zqi8lVFyl1Y3GN6MV2mj-6" style="edgeStyle=orthogonalEdgeStyle;rounded=0;orthogonalLoop=1;jettySize=auto;html=1;entryX=1.093;entryY=0.741;entryDx=0;entryDy=0;entryPerimeter=0;" edge="1" parent="1" source="Zqi8lVFyl1Y3GN6MV2mj-1" target="Zqi8lVFyl1Y3GN6MV2mj-3">
          <mxGeometry relative="1" as="geometry">
            <Array as="points">
              <mxPoint x="500" y="144" />
              <mxPoint x="500" y="144" />
            </Array>
          </mxGeometry>
        </mxCell>
        <mxCell id="Zqi8lVFyl1Y3GN6MV2mj-1" value="" style="image;points=[];aspect=fixed;html=1;align=center;shadow=0;dashed=0;image=img/lib/allied_telesis/computer_and_terminals/Server_Desktop.svg;" vertex="1" parent="1">
          <mxGeometry x="550" y="100" width="42.599999999999994" height="54" as="geometry" />
        </mxCell>
        <mxCell id="Zqi8lVFyl1Y3GN6MV2mj-2" value="OpenWeatherMap API" style="text;html=1;align=center;verticalAlign=middle;resizable=0;points=[];autosize=1;strokeColor=none;fillColor=none;" vertex="1" parent="1">
          <mxGeometry x="520" y="160" width="140" height="30" as="geometry" />
        </mxCell>
        <mxCell id="Zqi8lVFyl1Y3GN6MV2mj-3" value="" style="image;aspect=fixed;perimeter=ellipsePerimeter;html=1;align=center;shadow=0;dashed=0;fontColor=#4277BB;labelBackgroundColor=default;fontSize=12;spacingTop=3;image=img/lib/ibm/infrastructure/mobile_backend.svg;" vertex="1" parent="1">
          <mxGeometry x="290" y="100" width="60" height="60" as="geometry" />
        </mxCell>
        <mxCell id="Zqi8lVFyl1Y3GN6MV2mj-5" style="edgeStyle=orthogonalEdgeStyle;rounded=0;orthogonalLoop=1;jettySize=auto;html=1;entryX=0;entryY=0.556;entryDx=0;entryDy=0;entryPerimeter=0;" edge="1" parent="1" source="Zqi8lVFyl1Y3GN6MV2mj-3" target="Zqi8lVFyl1Y3GN6MV2mj-1">
          <mxGeometry relative="1" as="geometry" />
        </mxCell>
        <mxCell id="Zqi8lVFyl1Y3GN6MV2mj-7" value="2. Fetch weather forcast &lt;br&gt;for all cities in Sri Lanka." style="text;html=1;align=center;verticalAlign=middle;resizable=0;points=[];autosize=1;strokeColor=none;fillColor=none;" vertex="1" parent="1">
          <mxGeometry x="355" y="93" width="150" height="40" as="geometry" />
        </mxCell>
        <mxCell id="Zqi8lVFyl1Y3GN6MV2mj-10" style="edgeStyle=orthogonalEdgeStyle;rounded=0;orthogonalLoop=1;jettySize=auto;html=1;entryX=0;entryY=0.5;entryDx=0;entryDy=0;" edge="1" parent="1" source="Zqi8lVFyl1Y3GN6MV2mj-8" target="Zqi8lVFyl1Y3GN6MV2mj-3">
          <mxGeometry relative="1" as="geometry">
            <Array as="points">
              <mxPoint x="160" y="130" />
              <mxPoint x="160" y="130" />
            </Array>
          </mxGeometry>
        </mxCell>
        <mxCell id="Zqi8lVFyl1Y3GN6MV2mj-8" value="" style="sketch=0;points=[[0,0,0],[0.25,0,0],[0.5,0,0],[0.75,0,0],[1,0,0],[0,1,0],[0.25,1,0],[0.5,1,0],[0.75,1,0],[1,1,0],[0,0.25,0],[0,0.5,0],[0,0.75,0],[1,0.25,0],[1,0.5,0],[1,0.75,0]];outlineConnect=0;fontColor=#232F3E;fillColor=#E7157B;strokeColor=#ffffff;dashed=0;verticalLabelPosition=bottom;verticalAlign=top;align=center;html=1;fontSize=12;fontStyle=0;aspect=fixed;shape=mxgraph.aws4.resourceIcon;resIcon=mxgraph.aws4.eventbridge;" vertex="1" parent="1">
          <mxGeometry x="40" y="93" width="78" height="78" as="geometry" />
        </mxCell>
        <mxCell id="Zqi8lVFyl1Y3GN6MV2mj-9" value="AWS Event Bridge&lt;br&gt;(Schedule Event)" style="text;html=1;align=center;verticalAlign=middle;resizable=0;points=[];autosize=1;strokeColor=none;fillColor=none;" vertex="1" parent="1">
          <mxGeometry x="19" y="180" width="120" height="40" as="geometry" />
        </mxCell>
        <mxCell id="Zqi8lVFyl1Y3GN6MV2mj-33" style="rounded=0;orthogonalLoop=1;jettySize=auto;html=1;entryX=0.75;entryY=0;entryDx=0;entryDy=0;" edge="1" parent="1" target="Zqi8lVFyl1Y3GN6MV2mj-30">
          <mxGeometry relative="1" as="geometry">
            <mxPoint x="333" y="380" as="sourcePoint" />
          </mxGeometry>
        </mxCell>
        <mxCell id="Zqi8lVFyl1Y3GN6MV2mj-11" value="" style="sketch=0;points=[[0,0,0],[0.25,0,0],[0.5,0,0],[0.75,0,0],[1,0,0],[0,1,0],[0.25,1,0],[0.5,1,0],[0.75,1,0],[1,1,0],[0,0.25,0],[0,0.5,0],[0,0.75,0],[1,0.25,0],[1,0.5,0],[1,0.75,0]];outlineConnect=0;fontColor=#232F3E;fillColor=#C925D1;strokeColor=#ffffff;dashed=0;verticalLabelPosition=bottom;verticalAlign=top;align=center;html=1;fontSize=12;fontStyle=0;aspect=fixed;shape=mxgraph.aws4.resourceIcon;resIcon=mxgraph.aws4.documentdb_with_mongodb_compatibility;" vertex="1" parent="1">
          <mxGeometry x="281" y="300" width="78" height="78" as="geometry" />
        </mxCell>
        <mxCell id="Zqi8lVFyl1Y3GN6MV2mj-12" value="" style="dashed=0;outlineConnect=0;html=1;align=center;labelPosition=center;verticalLabelPosition=bottom;verticalAlign=top;shape=mxgraph.weblogos.mongodb" vertex="1" parent="1">
          <mxGeometry x="270" y="330" width="41.2" height="86.2" as="geometry" />
        </mxCell>
        <mxCell id="Zqi8lVFyl1Y3GN6MV2mj-13" value="Document DB" style="text;html=1;align=center;verticalAlign=middle;resizable=0;points=[];autosize=1;strokeColor=none;fillColor=none;" vertex="1" parent="1">
          <mxGeometry x="355" y="320" width="100" height="30" as="geometry" />
        </mxCell>
        <mxCell id="Zqi8lVFyl1Y3GN6MV2mj-14" value="1. Trigger the Endpoint" style="text;html=1;align=center;verticalAlign=middle;resizable=0;points=[];autosize=1;strokeColor=none;fillColor=none;" vertex="1" parent="1">
          <mxGeometry x="120" y="98" width="140" height="30" as="geometry" />
        </mxCell>
        <mxCell id="Zqi8lVFyl1Y3GN6MV2mj-15" style="edgeStyle=orthogonalEdgeStyle;rounded=0;orthogonalLoop=1;jettySize=auto;html=1;entryX=0.5;entryY=0;entryDx=0;entryDy=0;entryPerimeter=0;" edge="1" parent="1" source="Zqi8lVFyl1Y3GN6MV2mj-3" target="Zqi8lVFyl1Y3GN6MV2mj-11">
          <mxGeometry relative="1" as="geometry" />
        </mxCell>
        <mxCell id="Zqi8lVFyl1Y3GN6MV2mj-16" value="3. Store the entire forecast&lt;br&gt;in the Database" style="text;html=1;align=center;verticalAlign=middle;resizable=0;points=[];autosize=1;strokeColor=none;fillColor=none;" vertex="1" parent="1">
          <mxGeometry x="330" y="220" width="160" height="40" as="geometry" />
        </mxCell>
        <mxCell id="Zqi8lVFyl1Y3GN6MV2mj-24" value="EA-Monitoring-System-Backend" style="text;html=1;align=center;verticalAlign=middle;resizable=0;points=[];autosize=1;strokeColor=none;fillColor=none;" vertex="1" parent="1">
          <mxGeometry x="235" y="580" width="190" height="30" as="geometry" />
        </mxCell>
        <mxCell id="Zqi8lVFyl1Y3GN6MV2mj-25" style="edgeStyle=orthogonalEdgeStyle;rounded=0;orthogonalLoop=1;jettySize=auto;html=1;entryX=0;entryY=0.5;entryDx=0;entryDy=0;" edge="1" parent="1" source="Zqi8lVFyl1Y3GN6MV2mj-26" target="Zqi8lVFyl1Y3GN6MV2mj-30">
          <mxGeometry relative="1" as="geometry">
            <mxPoint x="87.5" y="680" as="targetPoint" />
          </mxGeometry>
        </mxCell>
        <mxCell id="Zqi8lVFyl1Y3GN6MV2mj-26" value="" style="image;aspect=fixed;html=1;points=[];align=center;fontSize=12;image=img/lib/azure2/general/Browser.svg;" vertex="1" parent="1">
          <mxGeometry x="53" y="512" width="65" height="52" as="geometry" />
        </mxCell>
        <mxCell id="Zqi8lVFyl1Y3GN6MV2mj-27" value="Actor" style="shape=umlActor;verticalLabelPosition=bottom;verticalAlign=top;html=1;outlineConnect=0;" vertex="1" parent="1">
          <mxGeometry x="-100" y="512" width="30" height="60" as="geometry" />
        </mxCell>
        <mxCell id="Zqi8lVFyl1Y3GN6MV2mj-28" style="rounded=0;orthogonalLoop=1;jettySize=auto;html=1;" edge="1" parent="1" source="Zqi8lVFyl1Y3GN6MV2mj-27">
          <mxGeometry relative="1" as="geometry">
            <mxPoint x="50" y="540" as="targetPoint" />
          </mxGeometry>
        </mxCell>
        <mxCell id="Zqi8lVFyl1Y3GN6MV2mj-29" value="Frontend" style="text;html=1;align=center;verticalAlign=middle;resizable=0;points=[];autosize=1;strokeColor=none;fillColor=none;" vertex="1" parent="1">
          <mxGeometry x="50" y="580" width="70" height="30" as="geometry" />
        </mxCell>
        <mxCell id="Zqi8lVFyl1Y3GN6MV2mj-30" value="" style="image;aspect=fixed;perimeter=ellipsePerimeter;html=1;align=center;shadow=0;dashed=0;fontColor=#4277BB;labelBackgroundColor=default;fontSize=12;spacingTop=3;image=img/lib/ibm/infrastructure/mobile_backend.svg;" vertex="1" parent="1">
          <mxGeometry x="290" y="508" width="60" height="60" as="geometry" />
        </mxCell>
        <mxCell id="Zqi8lVFyl1Y3GN6MV2mj-32" style="edgeStyle=orthogonalEdgeStyle;rounded=0;orthogonalLoop=1;jettySize=auto;html=1;entryX=0.5;entryY=1;entryDx=0;entryDy=0;entryPerimeter=0;" edge="1" parent="1" source="Zqi8lVFyl1Y3GN6MV2mj-30" target="Zqi8lVFyl1Y3GN6MV2mj-11">
          <mxGeometry relative="1" as="geometry" />
        </mxCell>
        <mxCell id="Zqi8lVFyl1Y3GN6MV2mj-34" value="1. User View&lt;br&gt;Weather Forecast" style="text;html=1;align=center;verticalAlign=middle;resizable=0;points=[];autosize=1;strokeColor=none;fillColor=none;" vertex="1" parent="1">
          <mxGeometry x="-70" y="493" width="120" height="40" as="geometry" />
        </mxCell>
        <mxCell id="Zqi8lVFyl1Y3GN6MV2mj-35" value="2. Request weather forecast&amp;nbsp;&lt;br&gt;for user location." style="text;html=1;align=center;verticalAlign=middle;resizable=0;points=[];autosize=1;strokeColor=none;fillColor=none;" vertex="1" parent="1">
          <mxGeometry x="110" y="493" width="180" height="40" as="geometry" />
        </mxCell>
        <mxCell id="Zqi8lVFyl1Y3GN6MV2mj-36" value="3. Fetch the weather forecast" style="text;html=1;align=center;verticalAlign=middle;resizable=0;points=[];autosize=1;strokeColor=none;fillColor=none;" vertex="1" parent="1">
          <mxGeometry x="340" y="430" width="180" height="30" as="geometry" />
        </mxCell>
        <mxCell id="Zqi8lVFyl1Y3GN6MV2mj-37" value="Every day at 6am" style="text;html=1;align=center;verticalAlign=middle;resizable=0;points=[];autosize=1;strokeColor=none;fillColor=none;" vertex="1" parent="1">
          <mxGeometry x="139" y="141" width="120" height="30" as="geometry" />
        </mxCell>
        <mxCell id="Zqi8lVFyl1Y3GN6MV2mj-41" value="Endpoint1" style="text;html=1;align=center;verticalAlign=middle;resizable=0;points=[];autosize=1;strokeColor=none;fillColor=none;" vertex="1" parent="1">
          <mxGeometry x="-160" y="50" width="80" height="30" as="geometry" />
        </mxCell>
        <mxCell id="Zqi8lVFyl1Y3GN6MV2mj-42" value="Endpoint2" style="text;html=1;align=center;verticalAlign=middle;resizable=0;points=[];autosize=1;strokeColor=none;fillColor=none;" vertex="1" parent="1">
          <mxGeometry x="-160" y="360" width="80" height="30" as="geometry" />
        </mxCell>
      </root>
    </mxGraphModel>
  </diagram>
</mxfile>
